<svg width="160" height="160" viewBox="0 0 160 160" fill="none" xmlns="http://www.w3.org/2000/svg">
<g filter="url(#filter0_d_8_921)">
<rect x="33" y="23" width="94" height="94" rx="47" fill="white"/>
</g>
<g clip-path="url(#clip0_8_921)">
<path d="M80.5032 114.006C104.529 114.006 124.006 94.5294 124.006 70.5032C124.006 46.4771 104.529 27 80.5032 27C56.4771 27 37 46.4771 37 70.5032C37 94.5294 56.4771 114.006 80.5032 114.006Z" fill="#6D5D5B"/>
<path d="M73.8532 79.5467C74.3323 78.2467 74.567 76.8694 74.5454 75.4842C74.1767 75.1866 73.8144 74.8373 73.4716 74.5398C70.884 72.0169 70.884 65.6321 70.2371 66.0849C68.7946 67.0553 67.8696 64.1443 67.6884 62.4559C67.5461 61.1298 67.9859 60.4053 68.5229 60.4764C68.7493 60.7222 69.0534 60.5605 69.3833 61.2074C69.6485 61.7314 69.9008 59.1632 72.2943 57.1773L75.1729 54.6673C77.5599 54.9326 78.4073 55.6118 82.6315 57.8177C86.1571 59.6743 90.6465 61.1686 91.2804 61.699C91.5586 61.9254 91.7785 60.8645 92.8523 60.5476C92.8523 60.5476 92.8523 60.5476 92.8523 60.5023C93.3245 60.567 93.6739 61.2721 93.5445 62.4753C93.3699 64.1895 92.4448 67.0747 91.0022 66.1043C90.3553 65.6515 90.3553 72.0363 87.7678 74.5592C87.5802 74.7403 87.3861 74.9214 87.192 75.0896C86.998 75.2578 86.8751 75.3484 86.7133 75.4778C86.6925 76.8756 86.9271 78.2655 87.4056 79.579C87.6126 79.4432 87.7419 79.4367 87.8389 79.579C87.936 79.7213 87.9748 79.786 88.0395 79.8895H93.9844C93.9844 79.8895 101.637 76.3963 97.7169 73.2007C93.1887 69.5199 98.2733 70.0439 98.0598 66.0138C97.9239 63.4262 94.9935 62.6758 95.4722 59.739C96.1773 55.3337 94.6249 47.888 89.2039 46.62C79.8758 40.4875 70.9552 44.3495 67.8113 50.6502C64.137 58.0377 69.3186 59.5514 64.8486 62.9411C63.3801 64.0667 62.8561 65.8391 63.4448 66.9841C64.5898 69.2029 67.2226 70.8008 65.2884 72.2045C62.358 74.3263 63.626 77.1661 67.8372 79.8766H73.187L73.3939 79.5661C73.5298 79.4237 73.6591 79.4238 73.8532 79.5467Z" fill="#3A3A3A"/>
<path d="M80.6649 86.4685C80.1862 87.0248 79.1382 87.8334 78.3037 88.7197C79.1811 89.8317 79.9933 90.9938 80.736 92.1999C81.4598 91.0237 82.2504 89.8898 83.1037 88.8038C82.2562 87.8852 81.1565 87.0636 80.6649 86.4685Z" fill="#EACCB0"/>
<path d="M85.2836 76.5063C84.6902 76.8592 84.0587 77.1435 83.4011 77.3538C82.8024 77.5483 82.1842 77.6763 81.5575 77.7354C80.7775 77.8175 79.99 77.7957 79.2158 77.6707C78.5811 77.5673 77.9589 77.3983 77.3592 77.1662C76.6931 76.8968 76.056 76.5609 75.4574 76.1635C75.1404 75.95 74.8105 75.7172 74.5452 75.5166C74.5668 76.9019 74.3321 78.2791 73.853 79.5791C74.5646 80.0448 76.2142 82.2895 80.6648 85.7245C85.0895 82.3089 86.7455 80.0707 87.4571 79.592C86.9786 78.2785 86.7441 76.8886 86.765 75.4907C86.2977 75.8664 85.8025 76.206 85.2836 76.5063Z" fill="#EACCB0"/>
<path d="M79.5265 94.2506C79.7011 93.9595 80.1216 93.1961 80.7361 92.1999C79.9934 90.9938 79.1813 89.8317 78.3038 88.7197C77.6117 89.4507 77.0748 90.2334 77.1395 90.9644C77.3335 92.9892 70.9876 85.537 71.0717 82.6519C70.927 82.7508 70.7706 82.8312 70.6059 82.8912C68.9952 83.5381 56.5037 88.0663 56.0703 88.6226C55.929 88.8218 55.8159 89.0395 55.7339 89.2695C56.1479 88.545 56.5748 88.2022 57.0277 88.3768C63.4965 90.9256 62.7526 104.549 62.9402 107.725C62.9555 108.552 62.9014 109.379 62.7785 110.196C68.0016 112.534 73.6375 113.81 79.3583 113.948C79.3453 103.145 79.3906 94.4834 79.5265 94.2506Z" fill="#F7F7F7"/>
<path d="M98.7132 107.764C98.9008 104.581 98.1439 90.945 104.626 88.4156C104.757 88.3641 104.902 88.3641 105.033 88.4156C102.892 87.3159 92.3413 83.4928 90.8664 82.9171C90.6339 82.8379 90.4155 82.7222 90.2195 82.5742C90.4718 85.3688 83.9576 93.0409 84.1517 90.9838C84.2229 90.2787 83.7247 89.5347 83.0714 88.8231C82.2181 89.9091 81.4276 91.043 80.7038 92.2193C80.0569 93.2155 79.6688 93.9789 79.4941 94.27C79.3195 94.5611 79.313 103.165 79.313 113.987C79.7011 113.987 80.0828 113.987 80.4709 113.987C86.8073 113.994 93.0679 112.61 98.8102 109.931C98.7176 109.213 98.6851 108.488 98.7132 107.764Z" fill="#FCFCFC"/>
<path d="M77.1394 90.9448C77.0748 90.2138 77.6116 89.4311 78.3038 88.7001C79.1383 87.8139 80.1863 87.0053 80.665 86.449C81.1566 87.0247 82.2563 87.8656 83.1037 88.7842C83.7506 89.4958 84.2552 90.2397 84.1841 90.9448C83.99 92.9955 90.5042 85.3234 90.2519 82.5353V82.4771C90.2066 82.0889 89.1392 81.5003 88.0912 79.8895C88.0265 79.786 87.9554 79.689 87.8907 79.579C87.826 79.469 87.6643 79.4238 87.4573 79.579C86.7457 80.0577 85.0897 82.2959 80.665 85.7115C76.2144 82.2765 74.5648 80.0318 73.8532 79.5661C73.6591 79.4431 73.5297 79.4431 73.4392 79.5661L73.2322 79.8766C72.1843 81.5003 71.1234 82.0889 71.0781 82.4641C71.0749 82.518 71.0749 82.572 71.0781 82.6259C70.9875 85.5369 77.3335 92.989 77.1394 90.9448Z" fill="#E5E5E5"/>
<path d="M77.3592 77.1661C77.9589 77.3982 78.5811 77.5673 79.2157 77.6707C79.99 77.7957 80.7775 77.8175 81.5575 77.7354C82.1842 77.6763 82.8024 77.5482 83.4011 77.3537C84.0586 77.1434 84.6902 76.8591 85.2835 76.5063C85.8035 76.1956 86.2988 75.8452 86.7649 75.4583C86.9267 75.329 87.0884 75.2061 87.2436 75.0702C87.3989 74.9344 87.6318 74.7209 87.8194 74.5398C90.4069 72.0169 90.4069 65.6321 91.0538 66.0849C92.4964 67.0553 93.4214 64.1443 93.596 62.4559C93.7254 61.2527 93.3761 60.5152 92.9039 60.4829V60.5281C91.8301 60.8451 91.6101 61.906 91.3319 61.6796C90.685 61.1686 86.2086 59.6743 82.683 57.7983C78.4847 55.5924 77.6114 54.9132 75.2244 54.6479L72.3458 57.1579C69.9523 59.1438 69.7 61.6861 69.4348 61.188C69.1049 60.5411 68.7879 60.7028 68.5745 60.457C68.0375 60.3858 67.5976 61.1039 67.7399 62.4365C67.9211 64.1507 68.8461 67.0358 70.2886 66.0655C70.9355 65.6127 70.8967 71.9975 73.5231 74.5203C73.8659 74.8503 74.2282 75.1672 74.5969 75.4648C74.9657 75.7624 75.1921 75.9306 75.5091 76.1117C76.0891 76.5239 76.7089 76.8772 77.3592 77.1661Z" fill="#F2D4B6"/>
<path d="M105.033 88.3897C104.902 88.3382 104.756 88.3382 104.625 88.3897C98.1566 90.9385 98.9005 104.562 98.7129 107.738C98.6937 108.474 98.737 109.209 98.8423 109.938C102.569 108.202 106.03 105.945 109.121 103.236C108.041 95.6349 106.605 88.8749 105.033 88.3897Z" fill="#E5E5E5"/>
<path d="M62.9272 107.764C62.7396 104.581 63.4965 90.9448 57.0147 88.4155C56.5813 88.2408 56.1544 88.5836 55.7209 89.3082C54.4272 91.5141 53.3145 97.3749 52.4282 103.753C55.5576 106.385 59.0418 108.562 62.7784 110.222C62.8963 109.408 62.946 108.586 62.9272 107.764Z" fill="#E5E5E5"/>
</g>
<defs>
<filter id="filter0_d_8_921" x="0" y="0" width="160" height="160" filterUnits="userSpaceOnUse" color-interpolation-filters="sRGB">
<feFlood flood-opacity="0" result="BackgroundImageFix"/>
<feColorMatrix in="SourceAlpha" type="matrix" values="0 0 0 0 0 0 0 0 0 0 0 0 0 0 0 0 0 0 127 0" result="hardAlpha"/>
<feMorphology radius="3" operator="dilate" in="SourceAlpha" result="effect1_dropShadow_8_921"/>
<feOffset dy="10"/>
<feGaussianBlur stdDeviation="15"/>
<feColorMatrix type="matrix" values="0 0 0 0 0.0196078 0 0 0 0 0.0627451 0 0 0 0 0.215686 0 0 0 0.15 0"/>
<feBlend mode="normal" in2="BackgroundImageFix" result="effect1_dropShadow_8_921"/>
<feBlend mode="normal" in="SourceGraphic" in2="effect1_dropShadow_8_921" result="shape"/>
</filter>
<clipPath id="clip0_8_921">
<rect width="87" height="87" fill="white" transform="translate(37 27)"/>
</clipPath>
</defs>
</svg>
